<svg width="10" height="11" viewBox="0 0 10 11" fill="none" xmlns="http://www.w3.org/2000/svg">
<path d="M8.4375 0.5C8.18886 0.5 7.9504 0.598772 7.77459 0.774587C7.59877 0.950403 7.5 1.18886 7.5 1.4375V9.5625C7.5 9.81114 7.59877 10.0496 7.77459 10.2254C7.9504 10.4012 8.18886 10.5 8.4375 10.5H9.0625C9.31114 10.5 9.5496 10.4012 9.72541 10.2254C9.90123 10.0496 10 9.81114 10 9.5625V1.4375C10 1.18886 9.90123 0.950403 9.72541 0.774587C9.5496 0.598772 9.31114 0.5 9.0625 0.5H8.4375ZM4.6875 3C4.43886 3 4.2004 3.09877 4.02459 3.27459C3.84877 3.4504 3.75 3.68886 3.75 3.9375V9.5625C3.75 9.81114 3.84877 10.0496 4.02459 10.2254C4.2004 10.4012 4.43886 10.5 4.6875 10.5H5.3125C5.56114 10.5 5.7996 10.4012 5.97541 10.2254C6.15123 10.0496 6.25 9.81114 6.25 9.5625V3.9375C6.25 3.68886 6.15123 3.4504 5.97541 3.27459C5.7996 3.09877 5.56114 3 5.3125 3H4.6875ZM0.9375 5.5C0.68886 5.5 0.450403 5.59877 0.274587 5.77459C0.0987721 5.9504 0 6.18886 0 6.4375V9.5625C0 9.81114 0.0987721 10.0496 0.274587 10.2254C0.450403 10.4012 0.68886 10.5 0.9375 10.5H1.5625C1.81114 10.5 2.0496 10.4012 2.22541 10.2254C2.40123 10.0496 2.5 9.81114 2.5 9.5625V6.4375C2.5 6.18886 2.40123 5.9504 2.22541 5.77459C2.0496 5.59877 1.81114 5.5 1.5625 5.5H0.9375Z" fill="#B3BFD2"/>
</svg>
