<svg width="12" height="14" viewBox="0 0 12 14" fill="none" xmlns="http://www.w3.org/2000/svg">
<path d="M9.90462 1H2.76176C2.38288 1 2.01952 1.14335 1.75161 1.39852C1.4837 1.65369 1.33319 1.99977 1.33319 2.36063V12.6593C1.33321 12.7188 1.34965 12.7774 1.38088 12.829C1.4121 12.8806 1.457 12.9235 1.5111 12.9534C1.5652 12.9833 1.62659 12.9991 1.68913 12.9993C1.75167 12.9995 1.81317 12.9841 1.86748 12.9545L5.62462 10.9102C5.84043 10.7928 6.08466 10.731 6.33319 10.731C6.58172 10.731 6.82596 10.7928 7.04176 10.9102L10.7989 12.9552C10.8533 12.9848 10.9148 13.0002 10.9774 13C11.04 12.9998 11.1015 12.9839 11.1556 12.9539C11.2097 12.9239 11.2546 12.8809 11.2858 12.8292C11.3169 12.7775 11.3333 12.7189 11.3332 12.6593V2.36063C11.3332 1.99977 11.1827 1.65369 10.9148 1.39852C10.6469 1.14335 10.2835 1 9.90462 1Z" stroke="#DAE0EA" stroke-width="1.08076" stroke-linecap="round" stroke-linejoin="round"/>
</svg>
