<svg width="99" height="45" viewBox="0 0 99 45" fill="none" xmlns="http://www.w3.org/2000/svg">
<rect width="98.1818" height="45" rx="21.8182" fill="white"/>
<rect x="0.856364" y="0.856364" width="96.4691" height="43.2873" rx="20.9618" stroke="#0166F4" stroke-opacity="0.1" stroke-width="1.71273"/>
<rect width="54.5454" height="26.1191" transform="translate(21.8228 12.2728)" fill="white"/>
<g clip-path="url(#clip0_25_1494)">
<path d="M47.4213 34.7607C47.2175 34.7607 47.0317 34.7207 46.8638 34.6408C46.696 34.5568 46.5601 34.433 46.4562 34.2691H46.4142L46.3543 34.6887H45.7488V30.3547H46.4802V31.9013H46.5161C46.5801 31.8053 46.658 31.7254 46.7499 31.6615C46.8418 31.5935 46.9477 31.5436 47.0676 31.5116C47.1875 31.4796 47.3194 31.4637 47.4633 31.4637C47.6991 31.4637 47.9069 31.5216 48.0867 31.6375C48.2705 31.7534 48.4144 31.9332 48.5183 32.177C48.6222 32.4168 48.6742 32.7265 48.6742 33.1062C48.6742 33.4898 48.6222 33.8035 48.5183 34.0473C48.4184 34.2911 48.2745 34.4709 48.0867 34.5868C47.9029 34.7027 47.6811 34.7607 47.4213 34.7607ZM47.1935 34.1312C47.3734 34.1312 47.5152 34.0973 47.6191 34.0293C47.727 33.9574 47.803 33.8495 47.8469 33.7056C47.8949 33.5617 47.9189 33.3799 47.9189 33.1601V33.0762C47.9189 32.8524 47.8949 32.6686 47.8469 32.5247C47.803 32.3768 47.727 32.2689 47.6191 32.201C47.5152 32.1291 47.3734 32.0931 47.1935 32.0931C47.0696 32.0931 46.9617 32.1151 46.8698 32.159C46.7819 32.203 46.708 32.2669 46.648 32.3508C46.5921 32.4348 46.5501 32.5387 46.5221 32.6626C46.4942 32.7865 46.4802 32.9263 46.4802 33.0822V33.1601C46.4802 33.3679 46.5042 33.5438 46.5521 33.6876C46.6041 33.8315 46.682 33.9414 46.7859 34.0173C46.8938 34.0933 47.0297 34.1312 47.1935 34.1312ZM49.5961 35.7797C49.4483 35.7797 49.3284 35.7677 49.2364 35.7438C49.1445 35.7238 49.0926 35.7118 49.0806 35.7078V35.1863H49.4163C49.5002 35.1863 49.5841 35.1643 49.6681 35.1203C49.752 35.0764 49.8279 35.0164 49.8958 34.9405C49.9638 34.8646 50.0137 34.7806 50.0457 34.6887L48.8168 31.5356H49.5841L50.1716 33.0462C50.1996 33.1142 50.2275 33.2001 50.2555 33.304C50.2875 33.4079 50.3195 33.5158 50.3514 33.6277C50.3834 33.7356 50.4094 33.8335 50.4294 33.9214H50.4593C50.4753 33.8615 50.4933 33.7935 50.5133 33.7176C50.5333 33.6417 50.5532 33.5637 50.5732 33.4838C50.5972 33.4039 50.6212 33.326 50.6452 33.25C50.6691 33.1741 50.6891 33.1082 50.7051 33.0522L51.1847 31.5356H51.928L50.873 34.5269C50.813 34.6947 50.7451 34.8546 50.6691 35.0064C50.5972 35.1583 50.5113 35.2922 50.4114 35.4081C50.3155 35.524 50.1996 35.6139 50.0637 35.6778C49.9318 35.7458 49.776 35.7797 49.5961 35.7797ZM55.2459 34.7607C54.6105 34.7607 54.117 34.5908 53.7653 34.2511C53.4136 33.9074 53.2378 33.3679 53.2378 32.6326C53.2378 32.149 53.3197 31.7514 53.4835 31.4397C53.6514 31.124 53.8912 30.8902 54.2029 30.7383C54.5186 30.5825 54.8962 30.5045 55.3358 30.5045C55.5996 30.5045 55.8474 30.5345 56.0792 30.5944C56.311 30.6544 56.5148 30.7463 56.6906 30.8702C56.8705 30.9901 57.0103 31.1419 57.1102 31.3258C57.2101 31.5096 57.2601 31.7274 57.2601 31.9792H56.4568C56.4568 31.8473 56.4269 31.7314 56.3669 31.6315C56.311 31.5276 56.231 31.4417 56.1271 31.3737C56.0272 31.3018 55.9113 31.2499 55.7794 31.2179C55.6476 31.1819 55.5077 31.1639 55.3598 31.1639C55.14 31.1639 54.9462 31.1939 54.7784 31.2538C54.6145 31.3098 54.4766 31.3977 54.3647 31.5176C54.2568 31.6335 54.1749 31.7794 54.119 31.9552C54.067 32.131 54.041 32.3369 54.041 32.5726V32.6985C54.041 33.0222 54.087 33.288 54.1789 33.4958C54.2708 33.7036 54.4087 33.8575 54.5925 33.9574C54.7804 34.0533 55.0121 34.1013 55.2879 34.1013C55.5237 34.1013 55.7295 34.0653 55.9053 33.9934C56.0852 33.9214 56.225 33.8175 56.3249 33.6816C56.4289 33.5418 56.4808 33.3719 56.4808 33.1721V33.1301H55.168V32.4827H57.2601V34.6887H56.7026L56.6367 34.2331C56.5168 34.353 56.3889 34.4529 56.253 34.5329C56.1171 34.6088 55.9673 34.6647 55.8034 34.7007C55.6396 34.7407 55.4537 34.7607 55.2459 34.7607ZM59.3519 34.7607C59.0082 34.7607 58.7204 34.7027 58.4887 34.5868C58.2569 34.4669 58.083 34.2851 57.9671 34.0413C57.8512 33.7975 57.7933 33.4878 57.7933 33.1122C57.7933 32.7325 57.8512 32.4228 57.9671 32.183C58.083 31.9392 58.2569 31.7594 58.4887 31.6435C58.7204 31.5236 59.0082 31.4637 59.3519 31.4637C59.6996 31.4637 59.9873 31.5236 60.2151 31.6435C60.4469 31.7594 60.6207 31.9392 60.7366 32.183C60.8525 32.4228 60.9104 32.7325 60.9104 33.1122C60.9104 33.4878 60.8525 33.7975 60.7366 34.0413C60.6207 34.2851 60.4469 34.4669 60.2151 34.5868C59.9873 34.7027 59.6996 34.7607 59.3519 34.7607ZM59.3519 34.1612C59.5437 34.1612 59.6976 34.1252 59.8134 34.0533C59.9333 33.9774 60.0193 33.8655 60.0712 33.7176C60.1272 33.5657 60.1551 33.3779 60.1551 33.1541V33.0702C60.1551 32.8464 60.1272 32.6606 60.0712 32.5127C60.0193 32.3608 59.9333 32.2489 59.8134 32.177C59.6976 32.1011 59.5437 32.0631 59.3519 32.0631C59.16 32.0631 59.0042 32.1011 58.8843 32.177C58.7684 32.2489 58.6825 32.3608 58.6265 32.5127C58.5746 32.6606 58.5486 32.8464 58.5486 33.0702V33.1541C58.5486 33.3779 58.5746 33.5657 58.6265 33.7176C58.6825 33.8655 58.7684 33.9774 58.8843 34.0533C59.0042 34.1252 59.16 34.1612 59.3519 34.1612ZM62.1972 34.6887L61.0822 30.5765H61.9095L62.5749 33.2201C62.5869 33.26 62.5989 33.316 62.6108 33.3879C62.6228 33.4558 62.6348 33.5278 62.6468 33.6037C62.6588 33.6796 62.6688 33.7476 62.6768 33.8075H62.7068C62.7147 33.7596 62.7207 33.7076 62.7247 33.6517C62.7327 33.5957 62.7407 33.5398 62.7487 33.4838C62.7607 33.4279 62.7707 33.3779 62.7787 33.334C62.7867 33.286 62.7927 33.248 62.7967 33.2201L63.4141 30.5765H64.4152L65.0326 33.2201C65.0446 33.26 65.0566 33.316 65.0686 33.3879C65.0806 33.4558 65.0926 33.5278 65.1046 33.6037C65.1166 33.6796 65.1266 33.7476 65.1345 33.8075H65.1645C65.1725 33.7636 65.1805 33.7156 65.1885 33.6637C65.2005 33.6077 65.2105 33.5538 65.2185 33.5018C65.2305 33.4459 65.2424 33.3939 65.2544 33.3459C65.2664 33.298 65.2764 33.256 65.2844 33.2201L65.9498 30.5765H66.6811L65.5602 34.6887H64.667L64.0016 31.9912C63.9896 31.9352 63.9756 31.8713 63.9596 31.7994C63.9476 31.7234 63.9356 31.6495 63.9236 31.5776C63.9157 31.5016 63.9077 31.4357 63.8997 31.3797H63.8757C63.8717 31.4397 63.8637 31.5096 63.8517 31.5895C63.8437 31.6655 63.8337 31.7394 63.8217 31.8113C63.8097 31.8833 63.7978 31.9432 63.7858 31.9912L63.1264 34.6887H62.1972ZM67.5222 34.7607C67.4342 34.7607 67.3323 34.7487 67.2164 34.7247C67.1045 34.7047 66.9946 34.6647 66.8867 34.6048C66.7828 34.5449 66.6969 34.4569 66.629 34.341C66.561 34.2211 66.5271 34.0653 66.5271 33.8735C66.5271 33.6577 66.575 33.4798 66.6709 33.3399C66.7668 33.1961 66.9007 33.0842 67.0726 33.0043C67.2484 32.9203 67.4562 32.8624 67.696 32.8304C67.9398 32.7944 68.2055 32.7765 68.4933 32.7765V32.5187C68.4933 32.4268 68.4793 32.3449 68.4513 32.2729C68.4233 32.201 68.3714 32.145 68.2954 32.1051C68.2235 32.0611 68.1136 32.0391 67.9657 32.0391C67.8179 32.0391 67.702 32.0571 67.6181 32.0931C67.5341 32.1291 67.4762 32.173 67.4442 32.225C67.4123 32.2769 67.3963 32.3309 67.3963 32.3868V32.4707H66.6889C66.6849 32.4508 66.6829 32.4308 66.6829 32.4108C66.6829 32.3908 66.6829 32.3668 66.6829 32.3389C66.6829 32.159 66.7369 32.0032 66.8448 31.8713C66.9527 31.7394 67.1025 31.6395 67.2944 31.5716C67.4862 31.4996 67.708 31.4637 67.9598 31.4637C68.2475 31.4637 68.4833 31.5036 68.6671 31.5835C68.8549 31.6635 68.9948 31.7774 69.0867 31.9252C69.1786 32.0731 69.2246 32.2529 69.2246 32.4647V33.9514C69.2246 34.0273 69.2466 34.0813 69.2905 34.1132C69.3345 34.1452 69.3825 34.1612 69.4344 34.1612H69.6262V34.6647C69.5863 34.6807 69.5283 34.6987 69.4524 34.7187C69.3765 34.7427 69.2826 34.7547 69.1707 34.7547C69.0667 34.7547 68.9728 34.7367 68.8889 34.7007C68.809 34.6687 68.741 34.6208 68.6851 34.5568C68.6291 34.4929 68.5892 34.417 68.5652 34.329H68.5292C68.4613 34.413 68.3794 34.4889 68.2835 34.5568C68.1915 34.6208 68.0816 34.6707 67.9538 34.7067C67.8299 34.7427 67.686 34.7607 67.5222 34.7607ZM67.744 34.1612C67.8638 34.1612 67.9697 34.1432 68.0617 34.1073C68.1576 34.0713 68.2355 34.0213 68.2954 33.9574C68.3594 33.8934 68.4073 33.8155 68.4393 33.7236C68.4753 33.6317 68.4933 33.5318 68.4933 33.4239V33.28C68.2735 33.28 68.0697 33.294 67.8818 33.322C67.698 33.3499 67.5501 33.4019 67.4382 33.4778C67.3303 33.5538 67.2764 33.6617 67.2764 33.8015C67.2764 33.8735 67.2924 33.9374 67.3243 33.9934C67.3603 34.0453 67.4123 34.0873 67.4802 34.1192C67.5521 34.1472 67.64 34.1612 67.744 34.1612ZM70.4455 35.7797C70.3056 35.7797 70.1737 35.7518 70.0498 35.6958C69.9259 35.6399 69.826 35.5559 69.7501 35.444C69.6742 35.3361 69.6362 35.2023 69.6362 35.0424C69.6362 34.8666 69.6862 34.7287 69.7861 34.6288C69.89 34.5249 70.0039 34.4469 70.1278 34.395C70.0358 34.347 69.9599 34.2831 69.9 34.2032C69.844 34.1232 69.816 34.0273 69.816 33.9154C69.816 33.7636 69.872 33.6437 69.9839 33.5558C70.0958 33.4638 70.2237 33.4039 70.3675 33.3759C70.2197 33.284 70.1058 33.1661 70.0259 33.0222C69.9499 32.8784 69.912 32.7145 69.912 32.5307C69.912 32.3109 69.9639 32.1231 70.0678 31.9672C70.1757 31.8073 70.3316 31.6835 70.5354 31.5955C70.7392 31.5076 70.985 31.4637 71.2727 31.4637C71.3886 31.4637 71.5005 31.4716 71.6084 31.4876C71.7163 31.5036 71.8142 31.5276 71.9022 31.5596C72.042 31.4756 72.1379 31.3817 72.1899 31.2778C72.2418 31.1699 72.2698 31.082 72.2738 31.0141H72.9872C72.9872 31.1539 72.9592 31.2778 72.9032 31.3857C72.8513 31.4936 72.7774 31.5835 72.6814 31.6555C72.5855 31.7234 72.4696 31.7734 72.3338 31.8053C72.4337 31.8933 72.5096 31.9992 72.5616 32.1231C72.6135 32.2469 72.6395 32.3828 72.6395 32.5307C72.6395 32.7505 72.5875 32.9403 72.4836 33.1002C72.3837 33.26 72.2338 33.3839 72.034 33.4718C71.8382 33.5597 71.5964 33.6037 71.3087 33.6037H70.8231C70.7392 33.6037 70.6733 33.6217 70.6253 33.6577C70.5814 33.6936 70.5594 33.7436 70.5594 33.8075C70.5594 33.8595 70.5794 33.9054 70.6193 33.9454C70.6633 33.9854 70.7232 34.0053 70.7992 34.0053H72.1779C72.4137 34.0053 72.6075 34.0833 72.7594 34.2391C72.9152 34.391 72.9932 34.5868 72.9932 34.8266C72.9932 35.0064 72.9452 35.1683 72.8493 35.3122C72.7574 35.456 72.6275 35.5699 72.4596 35.6538C72.2918 35.7378 72.096 35.7797 71.8722 35.7797H70.4455ZM70.7092 35.2522H71.8662C71.9421 35.2522 72.0081 35.2382 72.064 35.2102C72.1239 35.1863 72.1699 35.1503 72.2019 35.1023C72.2378 35.0544 72.2558 35.0004 72.2558 34.9405C72.2558 34.8366 72.2219 34.7587 72.1539 34.7067C72.09 34.6548 72.0101 34.6288 71.9141 34.6288H70.7092C70.6133 34.6288 70.5334 34.6568 70.4695 34.7127C70.4055 34.7726 70.3735 34.8486 70.3735 34.9405C70.3735 35.0324 70.4035 35.1063 70.4635 35.1623C70.5274 35.2222 70.6093 35.2522 70.7092 35.2522ZM71.2787 33.0882C71.4905 33.0882 71.6484 33.0402 71.7523 32.9443C71.8602 32.8444 71.9141 32.7065 71.9141 32.5307C71.9141 32.3548 71.8602 32.219 71.7523 32.1231C71.6484 32.0271 71.4905 31.9792 71.2787 31.9792C71.0669 31.9792 70.9071 32.0271 70.7992 32.1231C70.6952 32.219 70.6433 32.3548 70.6433 32.5307C70.6433 32.6466 70.6653 32.7465 70.7092 32.8304C70.7572 32.9143 70.8271 32.9783 70.919 33.0222C71.015 33.0662 71.1348 33.0882 71.2787 33.0882ZM73.3458 34.6887V31.5356H73.9572L74.0171 32.0331H74.0591C74.0991 31.9332 74.147 31.8413 74.203 31.7574C74.2629 31.6695 74.3389 31.5995 74.4308 31.5476C74.5227 31.4916 74.6346 31.4637 74.7665 31.4637C74.8304 31.4637 74.8884 31.4697 74.9403 31.4816C74.9963 31.4936 75.0382 31.5056 75.0662 31.5176V32.207H74.8444C74.7205 32.207 74.6106 32.225 74.5147 32.2609C74.4188 32.2929 74.3369 32.3449 74.2689 32.4168C74.205 32.4887 74.157 32.5786 74.125 32.6865C74.0931 32.7944 74.0771 32.9203 74.0771 33.0642V34.6887H73.3458Z" fill="#98A8C1"/>
<g clip-path="url(#clip1_25_1494)">
<g clip-path="url(#clip2_25_1494)">
<path d="M73.4897 28.1605C74.4733 28.1605 75.2706 27.3631 75.2706 26.3796C75.2706 25.396 74.4733 24.5986 73.4897 24.5986C72.5061 24.5986 71.7088 25.396 71.7088 26.3796C71.7088 27.3631 72.5061 28.1605 73.4897 28.1605Z" fill="#0166F4"/>
<path d="M46.8622 16.8709V17.5596C45.9995 17.0695 45.0234 16.8142 44.0312 16.8194C43.039 16.8246 42.0655 17.09 41.208 17.589C40.3505 18.0881 39.6389 18.8034 39.1442 19.6636C38.6496 20.5237 38.3893 21.4985 38.3893 22.4907C38.3893 23.4829 38.6496 24.4578 39.1442 25.3179C39.6389 26.178 40.3505 26.8933 41.208 27.3924C42.0655 27.8915 43.039 28.1569 44.0312 28.162C45.0234 28.1672 45.9995 27.912 46.8622 27.4219V28.1063H49.9783V16.8709H46.8622ZM44.064 25.2028C43.5277 25.2028 43.0034 25.0437 42.5575 24.7458C42.1116 24.4479 41.7641 24.0244 41.5589 23.5289C41.3536 23.0335 41.2999 22.4883 41.4046 21.9623C41.5092 21.4363 41.7674 20.9532 42.1466 20.5739C42.5258 20.1947 43.009 19.9365 43.535 19.8319C44.061 19.7272 44.6062 19.7809 45.1016 19.9862C45.5971 20.1914 46.0206 20.5389 46.3185 20.9848C46.6164 21.4307 46.7755 21.955 46.7755 22.4913C46.7755 22.8473 46.7053 23.1999 46.5691 23.5289C46.4328 23.8579 46.2331 24.1568 45.9813 24.4086C45.7295 24.6604 45.4306 24.8601 45.1016 24.9964C44.7726 25.1326 44.42 25.2028 44.064 25.2028Z" fill="#0166F4"/>
<path d="M67.7493 16.8698V17.5585C66.8866 17.0684 65.9105 16.8131 64.9183 16.8183C63.9261 16.8235 62.9526 17.0889 62.0951 17.5879C61.2375 18.087 60.5259 18.8023 60.0313 19.6625C59.5367 20.5226 59.2764 21.4974 59.2764 22.4896C59.2764 23.4818 59.5367 24.4567 60.0313 25.3168C60.5259 26.1769 61.2375 26.8922 62.0951 27.3913C62.9526 27.8904 63.9261 28.1558 64.9183 28.1609C65.9105 28.1661 66.8866 27.9109 67.7493 27.4208V28.1052H70.8654V16.8698H67.7493ZM64.95 25.2017C64.4137 25.2017 63.8894 25.0427 63.4435 24.7447C62.9976 24.4468 62.6501 24.0233 62.4449 23.5278C62.2396 23.0324 62.1859 22.4872 62.2906 21.9612C62.3952 21.4352 62.6534 20.9521 63.0326 20.5728C63.4118 20.1936 63.895 19.9354 64.421 19.8308C64.947 19.7261 65.4921 19.7798 65.9876 19.9851C66.4831 20.1903 66.9066 20.5378 67.2045 20.9837C67.5024 21.4296 67.6615 21.9539 67.6615 22.4902C67.6615 22.8462 67.5913 23.1988 67.4551 23.5278C67.3188 23.8568 67.1191 24.1557 66.8673 24.4075C66.6155 24.6593 66.3166 24.859 65.9876 24.9953C65.6586 25.1315 65.306 25.2017 64.95 25.2017Z" fill="#0166F4"/>
<path d="M54.153 12.3777H51.037V28.1597H54.153V12.3777Z" fill="#0166F4"/>
<path d="M58.3305 12.3772H55.2144V28.1593H58.3305V12.3772Z" fill="#0166F4"/>
<path d="M29.7154 25.0445C28.6492 25.041 27.6139 24.6862 26.7695 24.0352C25.9251 23.3842 25.3187 22.4731 25.0441 21.4428C24.7694 20.4126 24.8418 19.3206 25.25 18.3356C25.6583 17.3506 26.3796 16.5276 27.3026 15.9937C28.2255 15.4598 29.2986 15.2449 30.356 15.382C31.4133 15.5192 32.396 16.0009 33.1522 16.7526C33.9083 17.5043 34.3958 18.4842 34.5391 19.5408C34.6825 20.5973 34.4738 21.6716 33.9454 22.5977L35.5951 25.5261C36.8631 24.1308 37.5916 22.3289 37.6496 20.4444C37.7075 18.5599 37.0911 16.7166 35.9112 15.2461C34.7313 13.7755 33.0653 12.7743 31.2131 12.4225C29.3608 12.0707 27.4438 12.3914 25.8069 13.327C24.17 14.2625 22.9207 15.7515 22.2837 17.526C21.6467 19.3005 21.6638 21.2441 22.332 23.0071C23.0002 24.7701 24.2755 26.2368 25.9287 27.1433C27.5818 28.0499 29.5042 28.3368 31.3499 27.9524L29.7154 25.0445Z" fill="#0166F4"/>
<path d="M32.6503 28.1599H35.8749L30.39 18.4191H27.1655L32.6503 28.1599Z" fill="#0166F4"/>
</g>
</g>
</g>
<defs>
<clipPath id="clip0_25_1494">
<rect width="53.5227" height="26.1191" fill="white" transform="translate(21.8228 12.2728)"/>
</clipPath>
<clipPath id="clip1_25_1494">
<rect width="53.4677" height="15.8905" fill="white" transform="translate(21.8215 12.2727)"/>
</clipPath>
<clipPath id="clip2_25_1494">
<rect width="53.4677" height="15.8905" fill="white" transform="translate(21.8142 12.2722)"/>
</clipPath>
</defs>
</svg>
